<svg xmlns="http://www.w3.org/2000/svg" xmlns:xlink="http://www.w3.org/1999/xlink" version="1.1" x="0px" y="0px" viewBox="0 0 32 40" style="enable-background:new 0 0 32 32;" xml:space="preserve"><g><path d="M3.33002,18.17999l1.42999,9.46002C4.92999,28.64996,5.78003,29.37,6.78998,29.37h18.42004   c1.00995,0,1.85999-0.72003,2.02997-1.73999l1.42999-9.45001C32.07001,17.5,31.63,12.51996,28.14001,12.45996h-8.73004V3.63   c0-0.56-0.44-1-1-1h-4.81995c-0.56,0-1,0.44-1,1v8.82996H3.85999C0.38,12.51996-0.08002,17.5,3.33002,18.17999z M23.29999,24.75   c0,0.54999-0.45001,1-1.01001,1c-0.54999,0-1-0.45001-1-1v-3.88c0-0.56,0.45001-1,1-1c0.56,0,1.01001,0.44,1.01001,1V24.75z    M19.40997,14.46997h8.73004c1.14996,0,1.15997,1.76001,0,1.76001h-8.79004C19.39001,16.01001,19.40997,14.46997,19.40997,14.46997   z M17,24.75c0,0.54999-0.45001,1-1,1s-1-0.45001-1-1v-3.88c0-0.56,0.45001-1,1-1s1,0.44,1,1V24.75z M14.59003,4.63h2.81995v8.83997   c-0.06995,0.79999,0.25,2.48999-0.39996,3.07001c-0.85004,0.88-2.46002,0.23999-2.41998-0.98999V4.63z M10.71002,24.75   c0,0.54999-0.45001,1-1,1c-0.56,0-1.01001-0.45001-1.01001-1v-3.88c0-0.56,0.45001-1,1.01001-1c0.54999,0,1,0.44,1,1V24.75z    M12.65002,16.22998H3.85999c-1.15997,0-1.14996-1.76001,0-1.76001h8.73004C12.58002,14.91998,12.56,15.78998,12.65002,16.22998z"/><path d="M16.00012,15.99115c0.35431,0,0.6416-0.28723,0.6416-0.64154c0-0.35437-0.28729-0.6416-0.6416-0.6416   s-0.6416,0.28723-0.6416,0.6416C15.35852,15.70392,15.64581,15.99115,16.00012,15.99115z"/></g></svg>